<svg xmlns="http://www.w3.org/2000/svg" version="1.0" width="7359px" height="4809px" viewBox="0 0 7359 4809" preserveAspectRatio="xMidYMid meet">
   <defs>
      <linearGradient id="lg0" gradientUnits="userSpaceOnUse" x1="29.72826%" y1="57.46362%" x2="68.016304%" y2="91.26819%">
         <stop offset="0%" style="stop-color:rgb(0,0,0);"/>
         <stop offset="26%" style="stop-color:rgb(102,255,0);"/>
         <stop offset="100%" style="stop-color:rgb(202,255,0);"/>
      </linearGradient>
   </defs>
 <g fill="#00a800">
  <path d="M3741.49 2269.49 c-84.99 -7.60 -154.98 -30.20 -202.77 -65.59 -57.59 -42.79 -83.79 -101.99 -76.99 -173.98 5.60 -60.79 36.60 -111.38 91.79 -150.58 22.80 -16.20 65.59 -37.99 99.99 -51.19 13.80 -5.20 25.40 -10.20 25.80 -11 0.20 -1 -5.60 -6.80 -13 -13 -16 -13.40 -28.80 -31.80 -35.20 -50.19 -4 -11.40 -4.60 -17.20 -4.60 -43.19 0 -28.40 0.40 -31 6.20 -47.19 15.40 -43.39 52.99 -78.99 118.58 -112.58 l22.40 -11.40 -22 -21 c-40.59 -38.59 -59.19 -70.79 -70.59 -121.78 -5.60 -26 -7.20 -87.19 -2.80 -120.38 15.80 -119.38 80.39 -206.17 187.97 -252.37 50.59 -21.60 103.19 -31 174.18 -30.80 43.99 0 84.79 4.40 108.99 12 9.80 3 28 3.40 171.18 4.40 l159.98 1.20 -13.40 63.59 c-7.40 35 -13.60 63.99 -14 64.39 -0.40 0.40 -30.40 7.60 -66.79 16 -36.20 8.60 -66.59 16.20 -67.59 17 -0.80 0.60 0.20 8.80 2.40 18.20 13.40 56.59 9.40 136.38 -9.80 193.97 -15.20 46.19 -38.19 83.59 -70.99 115.98 -51.59 50.99 -115.98 80.59 -200.97 91.99 -28.20 4 -100.39 3.40 -123.38 -0.80 l-18.60 -3.40 -13 5.20 c-29.20 11.80 -46.39 27.40 -50.99 46.79 -5.20 21.40 4 39.99 24.40 49.59 20.20 9.80 41.59 14 126.38 25.60 103.99 14 134.38 20.40 175.98 37.39 28.20 11.60 48.39 24.60 68.39 44.39 15.80 15.80 19.40 20.60 28.60 38.99 17.20 35 19 44.79 19 99.99 0 50.79 -2.20 66.59 -14 104.59 -47.59 150.38 -210.17 232.57 -457.74 231.17 -24.20 -0.20 -52.59 -1.20 -62.99 -2z m143.58 -159.98 c98.59 -10.60 158.98 -47.59 172.58 -105.79 3.20 -13.60 3.20 -38.99 0 -46.99 -13.20 -33.20 -45.79 -44.99 -166.18 -59.79 -53.39 -6.60 -55.79 -6.80 -71.99 -4 -56.79 9.80 -94.19 26.40 -120.98 53.59 -23.20 23.60 -32.60 48.59 -30.60 81.79 2.80 45.19 36.20 71.79 102.19 81.39 16 2.40 93.19 2.20 114.98 -0.20z m119.38 -666.71 c32.20 -8.40 58.79 -33.60 78.99 -74.59 14.80 -30.20 22.60 -62.19 26.40 -106.79 6.80 -81.59 -17.60 -119.98 -76.39 -120.18 -31.80 -0.20 -54.59 9 -76.99 31.60 -28.80 28.60 -49.79 76.99 -56.99 130.58 -3.40 25 -2.80 70.99 0.80 84.99 8.20 29.80 26.40 48.99 52.59 55.19 12.20 2.80 38.79 2.40 51.59 -0.80z"/>
  <path d="M978.87 1899.54 c-84.39 -6.40 -151.98 -28 -212.17 -67.99 -30.60 -20.20 -70.39 -60.39 -91.19 -91.79 -36 -54.19 -58.19 -117.38 -68.59 -195.97 -4.40 -32.80 -6 -111.78 -3.20 -152.98 6.60 -93.79 23.40 -171.98 53.59 -250.97 79.39 -207.57 232.37 -346.95 437.54 -398.75 54.99 -13.80 107.39 -19.80 175.98 -20 79.59 -0.20 140.38 8.60 210.97 30.60 42.99 13.20 112.58 42.79 111.58 47.39 -0.40 1.40 -20.40 45.59 -44.59 98.39 l-43.99 95.99 -25 -12.60 c-86.99 -43.59 -165.58 -61.19 -245.37 -55.19 -52.79 4 -93.59 14.80 -138.18 36.20 -102.59 49.39 -179.18 144.78 -221.17 275.76 -21.20 65.39 -29.80 122.98 -29.80 198.17 0 48.79 2.40 72.79 10.60 105.99 22.80 92.19 79.79 141.98 176.58 153.98 41.59 5.20 106.59 0.40 160.58 -12 l18.20 -4.20 26 -117.38 25.80 -117.38 -104.59 -0.60 c-57.59 -0.20 -104.59 -1.20 -104.59 -2 0.20 -0.80 9.80 -45.99 21.80 -100.39 l21.40 -98.99 220.57 -0.60 c209.57 -0.40 220.57 -0.20 219.77 3 -0.40 2 -29.20 136.58 -63.59 299.16 l-62.79 295.36 -25.20 8 c-93.39 29.20 -155.98 41.59 -248.37 48.79 -47.79 3.80 -128.38 5.40 -158.58 3z"/>
  <path d="M1912.74 1899.54 c-37.99 -3.40 -79.39 -18.40 -108.19 -38.79 -27.20 -19.60 -56.59 -54.99 -73.79 -88.99 -14.40 -28.40 -27.40 -74.59 -33.40 -117.98 -3.40 -25 -3.40 -117.18 0 -149.98 13.40 -126.38 56.79 -251.77 118.58 -341.95 62.39 -91.19 144.38 -149.38 232.77 -165.18 26.80 -4.80 76.79 -4.80 102.99 -0.20 72.39 13.20 124.18 50.59 160.98 115.98 3.40 6.20 6.40 9.40 8.60 9 2 -0.40 10.40 -18.80 25.40 -56.59 l22 -55.99 90.59 -0.60 c49.59 -0.20 90.39 0 90.39 0.40 0 0.80 -178.98 842.49 -184.37 866.68 l-2.20 10.40 -88.79 0 -88.59 0 0 -5.40 c0 -3.20 2.20 -28 5 -55.59 2.80 -27.40 5 -50.79 5 -51.59 0 -4.40 -6.40 1 -19.80 16.20 -45.59 51.99 -104.99 89.19 -164.98 103.39 -34 8.20 -62.19 10 -98.19 6.80z m146.98 -190.97 c64.39 -15 128.38 -93.39 161.98 -197.77 19 -59.39 28 -119.38 28.20 -188.17 0 -40.99 -2.80 -56.19 -15 -80.39 -8 -16 -27.60 -38.19 -40.19 -45.59 -27.80 -16.20 -64.39 -18.60 -93.99 -6.20 -27.40 11.40 -60.99 42.19 -84.59 77.39 -23.60 35.20 -47.39 89.39 -61.19 139.78 -23 83.19 -29.60 175.18 -16 227.37 7 27.80 24.20 52.39 44.79 64.39 19.40 11.60 50.59 15.20 75.99 9.20z"/>
  <path d="M2873.21 1899.54 c-34.60 -4 -70.19 -16.40 -98.39 -34.60 -15.60 -10 -41.59 -35.20 -55.39 -53.59 -38.99 -52.39 -58.39 -119.58 -61.19 -211.57 -5 -167.38 47.79 -341.55 139.98 -462.74 16.60 -21.80 50.59 -56.59 71.19 -72.99 44.19 -35.20 87.39 -55.99 137.18 -65.99 72.19 -14.60 138.98 -1.60 185.97 36.40 19.80 16 36.79 35.60 56.39 64.79 8.20 12.40 16.20 22.60 17.80 22.60 3.40 0 4.40 -4.20 5.80 -30 4 -69.99 8.20 -94.79 45.19 -269.96 17.60 -82.99 32.40 -152.58 33 -154.38 1 -3.40 8.40 -3.60 118.18 -3.60 l117.18 0 -1.20 5.60 c-0.60 3 -58.79 277.36 -129.18 609.52 -70.59 332.35 -128.18 604.72 -128.18 605.52 0 0.60 -39.99 1.20 -88.99 1.20 l-88.99 0 0 -5.40 c0 -3.20 2.20 -28 5 -55.59 2.80 -27.40 5 -50.59 5 -51.39 0 -4.60 -6.20 -0.20 -15 10.60 -14.40 17.60 -43.59 44.99 -64.19 60.39 -57.59 42.79 -134.58 63.39 -207.17 55.19z m167.18 -194.57 c29.20 -11.20 61.79 -38.99 87.79 -75.39 16.40 -23 42.19 -74.39 53.19 -106.39 22 -63.59 32.20 -124.58 32.40 -193.37 0 -25.40 -0.80 -39.39 -3.20 -50.99 -13.80 -66.39 -62.19 -104.19 -120.78 -95.19 -28.80 4.40 -52.39 18.40 -79.39 46.79 -42.79 44.59 -75.59 111.58 -96.59 197.97 -13 52.79 -16.80 82.99 -17 136.38 -0.20 41.39 0.40 47.79 4.40 63.79 14.60 57.59 49.19 84.59 106.39 82.39 14.40 -0.60 22.20 -2 32.80 -6z"/>
  <path d="M4804.35 1899.74 c-96.19 -8.20 -166.58 -38.59 -220.57 -94.79 -63.59 -66.59 -90.99 -161.98 -82.59 -288.16 6.40 -95.59 26.60 -174.58 64.39 -251.97 41.59 -85.59 100.99 -154.78 171.98 -200.97 37.19 -24.20 86.99 -45.59 131.58 -56.99 77.59 -19.40 168.98 -19.40 240.17 0.40 97.39 27 158.58 92.99 171.98 185.57 2.60 18.40 2.60 58.79 -0.20 77.99 -20.20 145.98 -151.78 235.77 -380.75 260.16 -17.60 1.80 -57.59 3.60 -96.19 4.20 l-66.39 1 -1.20 14.40 c-1.60 16.80 1.40 51.99 5.80 69.79 1.80 6.80 7 20 11.40 29.20 10.80 22.80 33.60 45.79 55.79 56.79 24.40 12 41.99 15.60 79.99 16.80 81.59 2.60 146.78 -13 250.37 -60.19 l11.40 -5.20 0 88.19 0 87.99 -18.40 8.80 c-46.59 21.80 -106.99 39.79 -164.58 48.99 -47.59 7.60 -124.38 11.40 -163.98 8z m59.19 -523.93 c96.99 -9.80 166.78 -46.79 187.57 -99.19 9.80 -25.20 9.20 -57.59 -1.80 -79.99 -11.80 -24 -34.60 -34.80 -74.19 -34.80 -36.99 0 -68.19 11.20 -102.19 36.99 -51.19 38.59 -92.99 105.19 -107.39 170.58 l-1.80 8.40 39.59 0 c21.80 0 48.79 -1 60.19 -2z"/>
  <path d="M5625.24 1900.54 c-48.99 -3.40 -89.39 -14.20 -120.18 -32 -15.80 -9.20 -42.39 -35.80 -51.59 -51.39 -9.60 -16.40 -19.60 -47.19 -23.40 -71.59 -3.80 -25.20 -2.80 -80.19 2.20 -110.78 1.60 -11 23.60 -115.78 48.59 -232.97 l45.59 -212.97 -59.79 -0.60 c-55.59 -0.40 -59.79 -0.80 -58.99 -4 0.60 -1.80 5.80 -27.60 11.60 -57.39 l10.60 -53.99 76.99 -33 76.79 -33 51.59 -91.99 51.39 -91.99 75.39 -0.60 c70.79 -0.40 75.19 -0.20 74.99 3 0 2 -8.40 43.59 -18.40 92.59 l-18.60 88.99 111.38 0.60 111.38 0.40 -1.60 6.60 c-1 3.40 -9.60 41.99 -19 85.39 -9.40 43.39 -17.60 80.99 -18.40 83.59 l-1 4.40 -110.58 0 -110.58 0 -2.20 9.60 c-1.20 5.20 -22.20 102.59 -46.59 216.37 l-44.39 206.97 0 27 c-0.20 24.20 0.20 27.80 4.20 35.40 5.80 10.60 15.80 18.80 29 23.60 8.80 3.40 15.40 4 38.59 3.80 31.40 -0.20 52.79 -4 92.59 -16 12.80 -4 25 -7.80 27 -8.20 3.20 -1 3.40 4 3.40 85.99 l0 87.19 -9.40 4.20 c-17.20 7.80 -61.19 21.60 -81.59 25.80 -41.39 8.40 -110.19 13.40 -146.98 11z"/>
 </g>
 <g fill="#2dff00">
  <path d="M2277.69 4280.42 c0 -0.60 5 -9.40 11.20 -19.60 19.80 -32.40 43.19 -59.59 69.39 -80.39 l9.40 -7.40 0 8.20 c0 7.40 -1.20 9.60 -14 22.60 -7.60 8 -14 15.40 -14 16.20 0 2.80 -14.60 17.40 -17.40 17.40 -1.40 0 -2.60 1.80 -2.60 4.20 0 2.40 -5 9 -12 16 -6.60 6.40 -12 12.60 -12 13.80 0 4.20 -7.20 10 -12.40 10 -3.20 0 -5.60 -0.40 -5.60 -1z"/>
  <path d="M1003.86 3766.49 c0 -1.80 317.96 -1527.59 319.16 -1531.39 1 -3.40 18.20 -3.60 391.35 -2.80 406.74 0.80 401.95 0.80 455.34 9.60 121.38 20.20 221.57 76.39 282.56 158.78 30.60 41.19 50.39 83.99 64.59 138.58 10.20 39.99 13.40 68.39 13.60 119.38 0 58.39 -5.60 103.39 -20 160.38 -65.59 261.16 -252.37 452.14 -505.13 516.33 -32.80 8.40 -66.59 14.60 -108.39 19.60 -22.20 2.60 -63.59 3.20 -275.56 4 -189.57 0.60 -249.37 1.40 -249.97 3.20 -0.60 1.40 -19.80 92.99 -42.79 203.77 l-41.79 201.57 -141.38 0 c-77.99 0 -141.58 -0.40 -141.58 -1z m895.88 -659.51 c56.39 -9 105.19 -25.80 146.98 -50.39 110.19 -64.79 177.58 -174.98 189.37 -309.16 6 -68.99 -10.60 -131.38 -47.19 -176.98 -27 -33.60 -64.39 -57.79 -112.18 -72.59 -43.99 -13.60 -30 -12.80 -286.96 -13.60 l-232.97 -0.80 -65.59 311.56 c-36 171.38 -65.59 312.76 -65.59 314.16 0.20 2.20 40.19 2.60 226.77 1.80 199.17 -0.60 228.97 -1.20 247.37 -4z"/>
  <path d="M2420.27 3763.09 c0.60 -2.60 72.39 -346.55 159.38 -764.50 86.99 -417.94 158.78 -761.50 159.18 -763.30 1 -3.40 9.40 -3.60 137.98 -3.60 75.19 0 136.78 0.40 136.78 1 0 1.80 -317.96 1527.59 -319.16 1531.39 -1 3.20 -9.40 3.40 -138.18 3.40 l-136.98 0 1 -4.40z"/>
  <path d="M2906.80 3540.12 c-2.60 -9.60 -3.20 -33.80 -1.40 -51.59 9 -79.99 45.59 -269.56 109.39 -563.92 12.60 -58.19 28 -129.78 34.20 -158.98 6 -29.20 11.40 -54.19 11.80 -55.39 0.60 -2 57.99 -2.60 278.76 -2.60 l277.96 0 0 4.60 c0 4.80 -9.40 15.40 -13.60 15.40 -1.40 0 -2.40 2 -2.40 4.60 0 4.80 -9.40 15.40 -13.60 15.40 -1.40 0 -2.40 1.80 -2.40 4 0 2.40 -2 6.40 -4.40 9 -2.60 2.60 -10 10.80 -16.60 18 -6.60 7.20 -13.20 13 -14.40 13 -1.40 0 -2.60 1.80 -2.60 4 0 4.60 -9.40 16 -13.40 16 -1.40 0 -2.60 1.80 -2.60 4 0 4.40 -25.20 32 -29.40 32 -1.40 0 -2.60 2 -2.60 4.60 0 4.80 -9.40 15.40 -13.60 15.40 -1.40 0 -2.40 1.80 -2.40 4 0 4.20 -17.60 24 -21.60 24 -1.40 0 -2.40 2 -2.40 4.60 -0.20 2.40 -3.80 8 -8 12.40 -4.40 4.40 -8 8.60 -8 9.40 0 2.60 -27.20 29.60 -29.60 29.60 -1.40 0 -2.40 1.80 -2.40 4 0 4.60 -9.40 16 -13.40 16 -1.40 0 -2.60 1.80 -2.60 4 0 2.20 -6.20 10.40 -14 18.40 -7.60 8 -14 15.40 -14 16.20 0 2.80 -14.60 17.40 -17.40 17.40 -1.40 0 -2.60 1.80 -2.60 4 0 4.20 -17.60 24 -21.60 24 -1.40 0 -2.40 2.20 -2.40 5 0 3.60 -1 5 -4 5 -2.60 0 -4 1.40 -4 4 0 2.20 -5.40 9.60 -12 16.40 -6.60 7 -12 13.60 -12 14.60 -0.20 1.20 -4.60 6.60 -10 12 -5.60 5.60 -10 10.60 -10 11.40 0 2.60 -23.20 25.60 -25.60 25.60 -1.40 0 -2.40 1.80 -2.40 4 0 4.60 -9.40 16 -13.40 16 -1.40 0 -2.60 1.80 -2.60 3.80 0 4.40 -25.40 32.20 -29.40 32.20 -1.40 0 -2.60 1.80 -2.60 4 0 4.60 -9.40 16 -13.40 16 -1.40 0 -2.60 1.80 -2.60 4 0 2.20 -5.40 9.60 -12 16.40 -6.60 7 -12 13.60 -12 14.60 -0.20 1.20 -4.60 6.60 -10 12 -5.60 5.60 -10 10.60 -10 11.40 0 2.60 -23.20 25.60 -25.60 25.60 -1.40 0 -2.40 1.80 -2.40 4 0 4.60 -9.40 16 -13.40 16 -1.40 0 -2.60 1.80 -2.60 4 0 2.40 -5.60 9.80 -13 17.20 -7.20 7.20 -13 13.80 -13 14.60 0 0.80 -2.60 4 -6 7.20 -3.20 3.20 -6 6.80 -6 7.80 -0.20 1.20 -4.60 6.80 -10 12.20 -5.60 5.60 -10 10.60 -10 11.40 0 2.60 -23.20 25.60 -25.60 25.60 -1.40 0 -2.40 1.80 -2.40 4 0 4.60 -9.40 16 -13.40 16 -1.40 0 -2.60 1.80 -2.60 4 0 4.40 -25.20 32 -29.40 32 -1.40 0 -2.60 2 -2.60 4.60 0 4.80 -9.40 15.40 -13.60 15.40 -1.40 0 -2.40 1.80 -2.40 4 0 4.20 -17.60 24 -21.60 24 -1.40 0 -2.40 2.20 -2.40 5 0 4 -1 5 -4.80 5 -3 0 -5.40 -1.40 -6 -3.40z"/>
 </g>
 <g fill="#80ff00">
  <path fill="url(#lg0)" d="M2431.67 4580.18 c-35.60 -2.60 -66.19 -10.40 -83.39 -21.20 -15 -9.60 -55.99 -48.19 -67.19 -63.39 -12.40 -16.60 -17.20 -26.20 -26.60 -52.39 -7.20 -19.80 -7.60 -22 -7.60 -44.79 0 -25.60 3.40 -45.59 12.20 -73.99 7 -21.80 19.40 -47.99 23.60 -49.59 2 -0.80 3 -2.60 2.40 -4.40 -0.80 -1.80 -0.20 -2.40 1.80 -1.60 1.80 0.60 2.80 -0.20 2.80 -2.40 0 -2 -1 -2.80 -2.40 -2 -1.40 0.80 -1 0 0.80 -1.60 2 -1.60 2.80 -3.60 2 -4.40 -0.80 -1 -0.20 -1 1.20 0 3.60 2 23.20 -18.20 21.60 -22.20 -0.60 -1.80 0.60 -3.60 3.40 -4.60 4.40 -1.80 17.40 -14.80 17.40 -17.60 0 -1 6.40 -8.20 14 -16.20 7.80 -7.80 14 -15.80 14 -17.40 0 -1.60 6.60 -7.20 14.60 -12.60 32.40 -22 76.99 -39.99 109.59 -44.39 9.20 -1.20 21.80 -3.60 27.80 -5.40 16 -4.60 159.18 -5.60 385.95 -2.60 221.97 3 352.15 2.80 394.95 -0.20 17.60 -1.20 32.20 -2.40 32.20 -2.60 1.20 -1.20 45.59 -216.17 46.39 -223.37 1.20 -15 2.80 -14.60 -70.39 -16 -71.79 -1.40 -75.79 -2 -121.98 -17 -68.99 -22.60 -100.19 -38.39 -135.78 -68.39 -21.20 -18 -61.19 -62.19 -69.59 -77.19 -4.40 -7.80 -12.60 -20.80 -18.20 -29 -5.40 -8 -11.60 -19.20 -13.40 -25 -2 -5.60 -9 -25 -15.80 -43.19 -12.60 -34.40 -19.60 -58.79 -21 -73.99 -0.40 -5 -0.40 -7.40 0 -5.40 0.40 1.80 1.80 3.40 3 3.40 1.20 0 1.60 -1.80 1 -4.20 -0.80 -2.60 0 -4.40 2.20 -5.20 5.80 -2 22.80 -20.80 21.60 -23.80 -0.60 -1.80 0.60 -3.60 3.40 -4.60 6.60 -2.60 14 -11.40 12.60 -15.20 -0.80 -2 0.40 -3.80 3.40 -4.80 6.60 -2.60 29.80 -28.20 28.60 -31.40 -0.60 -1.80 0.60 -3.60 3.40 -4.60 6.20 -2.40 14 -12 12.60 -15.40 -0.60 -1.80 0.40 -3.40 2.40 -4.20 3.60 -1.40 26.40 -23.80 26.40 -26.20 0 -0.80 4.40 -5.80 10 -11.40 5.40 -5.40 9.80 -11 10 -12.20 0 -1 2.80 -4.60 6 -7.80 3.20 -3.20 6 -6.40 6 -7.20 0 -0.80 6 -7.40 13.20 -14.80 8.20 -8.40 12.80 -14.40 12 -16.20 -0.80 -1.80 0.60 -3.60 3.40 -4.60 6.20 -2.40 14 -12 12.60 -15.40 -0.60 -1.80 0.40 -3.40 2.40 -4.20 3.60 -1.40 26.40 -23.80 26.40 -26.20 0 -0.80 4.40 -5.80 10 -11.40 5.40 -5.40 9.80 -10.80 10 -12 0 -1 5.40 -7.80 12.20 -14.60 7.40 -7.80 11.60 -14 11 -15.60 -0.60 -1.80 0.60 -3.60 3.40 -4.60 6.20 -2.40 14 -12 12.60 -15.40 -0.60 -1.80 0.40 -3.40 2.40 -4.20 6 -2 30.80 -28.80 29.60 -31.80 -0.60 -1.80 0.60 -3.60 3.40 -4.60 6.20 -2.40 14 -12 12.60 -15.40 -0.60 -1.80 0.40 -3.40 2.40 -4.20 3.60 -1.40 26.40 -23.80 26.40 -26.20 0 -0.80 4.40 -5.80 10 -11.40 5.40 -5.40 9.80 -10.80 10 -12 0 -1 5.40 -7.60 12 -14.60 6.80 -7 12 -13.60 11.80 -15 -0.60 -5.60 0.40 -7 4.60 -5.80 3.60 0.80 4 0.40 3 -3.40 -0.80 -3 0 -4.80 2.20 -5.60 5.80 -2 22.80 -20.80 21.60 -23.80 -0.60 -1.80 0.60 -3.60 3.40 -4.60 4.40 -1.80 17.40 -14.80 17.40 -17.60 0 -1 6.40 -8.20 14.20 -16.20 8.80 -9.20 13.60 -15.80 13 -17.60 -0.60 -1.80 0.60 -3.60 3.40 -4.60 6.20 -2.40 14 -12 12.60 -15.40 -0.60 -1.80 0.40 -3.40 2.40 -4.20 3.60 -1.40 30.40 -27.80 30.40 -30.20 0 -0.80 3.80 -5.20 8.20 -10 5 -5.20 7.80 -9.60 7 -11.60 -0.60 -1.80 0.20 -3.40 2.40 -4.20 5.80 -2 22.80 -20.80 21.60 -23.80 -0.60 -1.80 0.60 -3.60 3.40 -4.60 6.60 -2.60 14 -11.40 12.60 -15.20 -0.80 -2 0.40 -3.80 3.40 -4.80 6.60 -2.60 29.80 -28.20 28.60 -31.40 -0.60 -1.80 0.60 -3.60 3.40 -4.60 6.20 -2.40 14 -12 12.60 -15.40 -0.60 -1.80 0.40 -3.40 2.40 -4.20 2.80 -1 14.20 -12.20 32.60 -32.20 2.20 -2.60 3.60 -6 3 -7.60 -0.80 -1.80 0.60 -3.60 3.40 -4.60 6.60 -2.60 14.20 -11.40 12.60 -15.20 -0.60 -2 0.20 -3.60 2.40 -4.40 1.80 -0.60 6 -3.60 9 -6.40 l5.60 -5.20 -18.60 -1.20 c-10.20 -0.60 152.18 -1.20 360.95 -1.40 360.75 -0.40 379.55 -0.20 378.55 3.20 -0.60 1.80 -34 162.18 -74.19 356.35 -40.39 194.17 -75.39 361.55 -77.99 372.15 -11 42.99 -23.20 72.19 -42.79 101.79 -6.40 9.40 -17 26.40 -23.80 37.99 -17.40 29.20 -54.99 73.79 -105.39 124.98 -20.80 21 -29 27.80 -60.99 48.99 -20.40 13.40 -42.99 29 -50.39 34.40 -33.40 24.40 -151.98 68.19 -214.57 78.79 -11.40 2 -40.79 3.80 -79.99 4.80 -34 0.80 -62.19 1.80 -62.39 1.80 -1.20 0.60 -13 41.59 -17.40 60.19 -2.80 11.60 -9.60 45.59 -15.20 75.59 -11.40 61.19 -19.20 94.19 -26.20 110.39 -2.60 6 -14.20 23.60 -25.80 39.19 -11.60 15.60 -24.20 32.60 -28 37.99 -19.60 27.20 -71.19 57.59 -113.18 66.79 -54.99 11.80 -89.39 12.60 -396.75 8.20 -225.97 -3 -389.15 -2.20 -416.94 2.40 -24.60 4 -29.80 6.60 -49.39 24 -12 10.80 -18.80 18.60 -23.80 27.80 -6.40 11.80 -6.80 13.80 -6.80 31.60 0 16 0.80 20.40 4.60 27.80 6.40 11.60 21.40 27.60 31.40 32.80 l8 4.40 523.33 0.60 523.53 0.40 0 5.20 c0 5.40 -12.80 20.80 -17.40 20.80 -1.40 0 -2.60 1.80 -2.60 4 0 4.60 -9.40 16 -13.40 16 -1.40 0 -2.60 1.80 -2.60 4 0 2.20 -5.40 9.60 -12 16.40 -6.60 7 -12 13.60 -12 14.60 -0.20 1.20 -4.60 6.60 -10 12 -5.60 5.60 -10 10.60 -10 11.40 0 2.60 -23.20 25.60 -25.60 25.60 -1.40 0 -2.40 1.80 -2.40 4 0 4.60 -9.40 16 -13.40 16 -1.40 0 -2.60 0.80 -2.60 1.80 0 1 -24.60 2.20 -54.39 3 -57.99 1.20 -886.08 3 -901.48 2z m970.87 -873.48 c80.39 -64.79 255.77 -206.57 389.95 -314.96 l243.77 -197.17 -217.57 -0.60 c-172.58 -0.40 -217.37 -1 -216.57 -3 0.40 -1.20 42.99 -105.79 94.39 -232.37 51.39 -126.38 95.19 -234.37 97.39 -239.97 l3.80 -9.80 -4.40 3.80 c-5.40 4.80 -126.98 119.58 -424.34 400.95 l-225.17 212.97 8.40 0.60 c4.60 0.40 101.79 -1.20 215.97 -3.60 114.18 -2.40 207.97 -4 208.17 -3.60 0.40 0.40 -72.59 113.98 -162.18 252.57 -89.39 138.58 -162.58 252.77 -162.58 253.57 0 1 1.20 1 2.60 0.20 1.20 -1 68.19 -54.59 148.38 -119.58z"/>
  <path d="M2679.64 3765.49 c0 -1 3.20 -2 7 -2 3.80 0 7 1 7 2 0 1.20 -3.20 2 -7 2 -3.80 0 -7 -0.80 -7 -2z"/>
  <path d="M2904.21 3510.52 c0 -6.60 0.40 -9 0.80 -5.40 0.40 3.60 0.40 9 0 12 -0.40 3 -0.80 0 -0.80 -6.60z"/>
  <path fill="url(#lg0)" d="M4294.62 3501.92 c-0.60 -1 -3.20 -10.20 -6 -20.60 -28 -108.79 -16.40 -245.17 32.20 -371.75 35 -91.19 84.19 -168.78 149.38 -235.77 112.78 -115.58 250.57 -184.37 416.14 -207.97 28.60 -4 84.79 -8.20 111.98 -8.20 14.60 0 15 0.20 15 5 0 3.40 -4.20 9.40 -14 19.40 -7.60 8 -14 15.40 -14 16.20 0 2.80 -14.60 17.40 -17.40 17.40 -1.40 0 -2.60 1.80 -2.60 4 0 4.20 -17.60 24 -21.60 24 -1.40 0 -2.40 2 -2.40 4.60 -0.20 2.40 -3.80 8 -8 12.40 -4.40 4.40 -8 8.60 -8 9.40 0 2.60 -27.20 29.60 -29.60 29.60 -1.40 0 -2.40 1.80 -2.40 4 0 4.60 -9.40 16 -13.40 16 -1.40 0 -2.60 1.80 -2.60 4 0 2.20 -6.20 10.40 -14 18.40 -7.60 8 -14 15.40 -14 16.20 0 2.80 -14.60 17.40 -17.40 17.40 -1.40 0 -2.60 1.80 -2.60 4 0 4.20 -17.60 24 -21.60 24 -1.40 0 -2.40 1.80 -2.40 4 0 6.40 -5.40 10.80 -26.20 20.40 -64.59 30.40 -118.78 77.59 -156.18 135.58 -22.80 35.40 -39.79 71.79 -51.59 109.79 -4.20 13.20 -7.20 20.20 -9.20 20.20 -1.60 0 -2.80 1.80 -2.80 4 0 2.20 -5.40 9.60 -12 16.40 -6.60 7 -12 13.60 -12 14.60 -0.20 1.20 -3.80 5.60 -8 10 -4.40 4.40 -8 8.60 -8 9.40 0 2.60 -27.20 29.60 -29.60 29.60 -1.40 0 -2.40 1.80 -2.40 4 0 4.60 -9.40 16 -13.40 16 -1.40 0 -2.60 1.80 -2.60 4 0 2.20 -6.20 10.40 -14 18.40 -7.60 8 -14 15.40 -14 16.20 0 2.80 -14.60 17.40 -17.40 17.40 -1.40 0 -2.60 1.80 -2.60 4 0 4.20 -17.60 24 -21.60 24 -1.40 0 -2.40 2 -2.40 4.60 -0.20 2.40 -3.80 8 -8 12.40 -4.40 4.40 -8 8.60 -8 9.40 0 2.60 -27.20 29.60 -29.60 29.60 -1.40 0 -2.40 1.80 -2.40 4 0 4.60 -9.40 16 -13.40 16 -1.40 0 -2.60 1.80 -2.60 4 0 2.20 -6.20 10.40 -14 18.40 -7.60 8 -14 15.40 -14 16.20 0 5 -10.40 9.60 -12.80 5.80z"/>
 </g>
 <g fill="#b4ff00">
  <path fill="url(#lg0)" d="M4242.02 4801.15 c-12.80 -5 -25 -18 -28.60 -30.80 -4.20 -15 -1.40 -39.59 9.80 -84.99 14.40 -58.19 16.40 -77.59 8.80 -92.39 -1.40 -3 -4.60 -6.40 -6.80 -7.80 -6.80 -3.60 -151.98 -5.60 -510.13 -7 -324.56 -1.40 -333.35 -1.60 -334.15 -5.20 -0.80 -2.60 0.20 -4.40 3.20 -5.40 6.20 -2.40 14 -12 12.60 -15.40 -0.60 -1.80 0.40 -3.40 2.40 -4.20 3.60 -1.40 26.40 -23.80 26.40 -26.20 0 -0.80 4.40 -5.80 10 -11.40 5.40 -5.40 9.80 -10.80 10 -12 0 -1 5.40 -7.80 12.20 -14.60 7.40 -7.80 11.60 -14 11 -15.60 -0.60 -1.80 0.60 -3.60 3.40 -4.60 6.20 -2.40 14 -12 12.60 -15.40 -0.60 -1.80 0.60 -3.60 3.40 -4.60 4 -1.60 17.40 -14.80 17.40 -17.20 0 -0.60 -3 -1.20 -6.40 -1.40 -16.40 -1.20 277.96 -2.60 520.33 -2.60 215.17 0 269.16 0.60 277.96 2.60 14.80 3.60 44.79 18.80 60.99 31 26.80 20 40.99 43.39 48.19 79.39 5.40 26.80 6 44.59 2 67.39 -4 22.40 -26.60 125.78 -30.20 137.78 -7 23.80 -25.60 43.79 -53.79 57.79 l-13.80 7 -29.20 -0.20 c-24.20 0 -31 -0.60 -39.59 -4z"/>
  <path d="M3261.56 4577.58 c0 -1.80 51.19 -4.40 55.39 -2.80 8 3.20 -0.60 4.60 -26.40 4.60 -16 0 -29 -0.80 -29 -1.80z"/>
  <path fill="url(#lg0)" d="M4642.37 4221.23 c-33.60 -1.60 -65.59 -5.60 -103.59 -13 -124.58 -24.20 -231.57 -86.59 -303.76 -176.78 -13.40 -16.60 -31.60 -44.79 -30.20 -46.19 1.60 -1.60 17 -10.80 165.78 -99.79 l86.39 -51.39 12.60 18.20 c15.80 22.40 55.59 62.59 75.99 76.59 56.59 38.59 127.98 56.99 209.77 53.99 69.99 -2.80 129.18 -18.40 182.38 -48.39 66.39 -37.59 118.58 -101.39 142.38 -173.58 6.80 -20 25.60 -99.39 23.80 -99.39 -0.60 0 -6 4.40 -11.80 10 -15.40 14 -40.39 31.40 -64.79 45.59 -57.99 33.40 -124.38 54.59 -204.97 65.59 -36.60 5 -129.18 5.20 -165.98 0.20 -90.19 -12.20 -169.58 -43.39 -231.97 -91.19 -54.99 -41.99 -102.19 -108.59 -125.78 -177.78 -6.40 -18.60 -9.80 -32.60 -5 -20.80 1.60 4.20 2.20 4.40 4.80 1.60 1.60 -1.60 3 -3.60 3 -4.60 0 -0.80 6.40 -8.20 14.20 -16.20 8.80 -9.20 13.60 -15.80 13 -17.60 -0.60 -1.80 0.60 -3.60 3.40 -4.60 6.20 -2.40 14 -12 12.60 -15.40 -0.60 -1.80 0.40 -3.40 2.40 -4.20 3.60 -1.40 30.40 -27.80 30.40 -30.20 0 -0.80 3.80 -5.20 8.20 -10 5 -5.20 7.80 -9.60 7 -11.60 -0.60 -1.80 0.20 -3.40 2.40 -4.20 5.80 -2 22.80 -20.80 21.60 -23.80 -0.60 -1.80 0.60 -3.60 3.40 -4.60 4.40 -1.80 17.40 -14.80 17.40 -17.60 0 -1 6.40 -8.20 14.20 -16.20 8.80 -9.20 13.60 -15.80 13 -17.60 -0.60 -1.80 0.60 -3.60 3.40 -4.60 6.20 -2.40 14 -12 12.60 -15.40 -0.60 -1.80 0.40 -3.40 2.40 -4.20 3.60 -1.40 30.40 -27.80 30.40 -30.20 0 -0.80 3.60 -5 8 -9.40 4.20 -4.40 7.80 -8.80 8 -10 0 -1 5.40 -7.80 12.20 -14.60 7.40 -7.80 11.60 -14 11 -15.60 -0.80 -1.80 0.60 -3.60 3.80 -4.80 2.80 -1 5.40 -4.20 6.20 -7 0.60 -2.80 2.80 -5 4.60 -5.20 2 0 2.20 -0.40 0.80 -1.20 -3.80 -1.40 -3.20 -4.60 1 -4.80 2 0 2.40 -0.60 1 -1.20 -3.80 -1.40 -3.20 -4.60 1 -4.80 2 0 2.40 -0.60 1 -1.20 -3.80 -1.40 -3.20 -4.60 1 -4.60 2.80 0 3 -0.40 0.40 -2 -2.60 -1.60 -2.40 -2 0.80 -2 2.60 0 3.20 1 2.20 3.60 -0.80 1.80 -4.40 14 -8 26.80 -37.99 130.78 -18.20 240.57 54.19 302.36 48.99 41.79 118.18 61.59 203.77 58.59 168.78 -6 299.76 -106.79 354.75 -273.36 20.40 -61.99 29.20 -133.98 22.20 -182.98 -11 -76.79 -50.59 -134.98 -113.38 -166.58 -85.59 -43.19 -213.57 -40.19 -314.36 7.80 -32.80 15.60 -30.20 8.40 3 -8.20 13.20 -6.60 21.80 -14.80 20 -19.20 -0.60 -1.80 0.40 -3.40 2.40 -4.20 5.80 -2 22.80 -20.80 21.60 -23.80 -0.60 -1.80 0.60 -3.60 3.40 -4.60 4.40 -1.80 17.40 -14.80 17.40 -17.60 0 -1 6.40 -8.20 14.20 -16.20 8.80 -9.20 13.60 -15.80 13 -17.60 -0.60 -1.80 0.60 -3.60 3.40 -4.60 6.20 -2.40 14 -12 12.60 -15.40 -0.60 -1.80 0.40 -3.40 2.40 -4.20 3.60 -1.40 30.40 -27.80 30.40 -30.20 0 -0.80 3.80 -5.20 8.20 -10 5 -5.20 7.80 -9.60 7 -11.60 -0.60 -1.80 0.20 -3.40 2.40 -4.20 5.80 -2 22.80 -20.80 21.60 -23.80 -0.60 -1.80 0.60 -3.60 3.40 -4.60 4.40 -1.80 17.40 -14.80 17.40 -17.60 0 -1 6.40 -8.20 14 -16.20 7.80 -7.80 14 -14.80 14 -15.40 0 -0.60 -8.80 -1.20 -19.40 -1.40 -17.60 -0.40 -18.20 -0.40 -5.60 -1.20 20.80 -1 86.99 3.20 116.38 7.60 150.18 22.40 261.56 90.19 326.56 198.77 28.20 46.79 45.99 102.39 53.99 167.58 3.80 29.60 1.60 115.78 -3.60 147.58 -7.40 44.39 -118.58 568.12 -125.78 591.92 -22.60 74.79 -59.19 144.58 -106.59 203.97 -21.40 26.60 -62.79 68.19 -89.99 90.39 -99.39 80.79 -222.17 131.78 -359.95 149.78 -26 3.40 -103.59 8.20 -116.98 7.40 -2.20 0 -17.40 -0.80 -34 -1.80z"/>
  <path d="M4742.36 2943.80 c-1.20 -2.20 6.60 -5.20 8.60 -3.20 0.80 0.60 0 2 -1.60 3 -3.80 2.40 -5.40 2.40 -7 0.20z"/>
 </g>
</svg>
